<svg width="71" height="91" viewBox="0 0 71 91" fill="none" xmlns="http://www.w3.org/2000/svg">
<path d="M0 26.8C0 47.2 0.4 53.2 1.6 52.5334C2.53333 52 9.2 47.7334 16.5333 43.0667C23.7333 38.4 30.4 34.6667 31.0667 34.6667C31.7333 34.6667 40.4 39.2 50.1333 44.8C60 50.4 68.4 54.6667 68.8 54.4C69.2 54 69.7333 51.6 70.2667 48.9334L70.9333 44.2667L57.4667 36.4C50.1333 32.1334 44 28.4 44 28C44 27.6 50 24.1333 57.3333 20.1333L70.6667 12.9333V6.40001C70.6667 2.93335 70.2667 1.34382e-05 69.8667 1.34382e-05C69.0667 1.34382e-05 43.0667 14.4 17.7333 28.9334L12 32.1334V18.9333V5.86668L6.8 2.93335C4 1.33335 1.33333 1.34382e-05 0.8 1.34382e-05C0.4 1.34382e-05 0 12 0 26.8Z" fill="#0F172A"/>
<path d="M15.3333 51.2C4 58.2667 2 60 2.4 62.6667C2.93333 67.2 3.33333 67.3333 8.93333 65.0667C11.7333 63.8667 17.2 61.7333 21.0667 60.1333C24.8 58.6667 28 57.8667 28 58.5333C28 59.0667 23.3333 61.6 17.7333 64C12 66.2667 6.8 68.6667 6.26667 69.2C5.73333 69.7333 6.4 71.7333 7.73333 73.4667C10.2667 76.5333 10.5333 76.5333 17.4667 74.8C21.4667 73.7333 25.4667 72.6667 26.4 72.4C27.2 72 28 72.4 28 73.2C28 73.8667 25.4667 75.3333 22.4 76.1333C19.2 77.0667 16.1333 78.1333 15.6 78.6667C15.0667 79.2 18.2667 82.1333 22.8 85.0667C27.3333 88.1333 31.3333 90.5333 31.4667 90.2667C32.2667 89.4667 30.2667 42.6667 29.4667 42.6667C29.0667 42.6667 22.6667 46.5333 15.3333 51.2Z" fill="#0F766E"/>
<path d="M35.7333 66.2667C35.3333 79.3333 35.2 90.1333 35.3333 90.4C35.8667 91.0667 52 79.7333 52 78.6667C52 78.1333 49.0667 76.9333 45.3333 76C41.7333 75.0667 38.6667 73.8667 38.6667 73.0667C38.6667 72.4 39.7333 72.1333 41.0667 72.5333C42.2667 72.9333 46.2667 73.8667 49.8667 74.8C56 76.2667 56.4 76.2667 58.8 73.2C60.1333 71.4667 61.3333 69.7333 61.3333 69.3333C61.3333 68.9333 56.5333 66.8 50.5333 64.6667C40.8 61.0667 37.6 59.2 38.8 58.1333C39.0667 57.8667 44.6667 59.7333 51.2 62.2667C60.6667 65.8667 63.3333 66.5333 64.1333 65.0667C66.8 60.9333 64.9333 59.3333 42.5333 46.2667L36.4 42.6667L35.7333 66.2667Z" fill="#0F766E"/>
</svg>
