<svg width="347" height="119" viewBox="0 0 347 119" fill="none" xmlns="http://www.w3.org/2000/svg">
<rect width="347" height="115" rx="20" fill="#F8FAFC"/>
<path d="M23 41.8C23 62.2 23.4 68.2 24.6 67.5334C25.5333 67 32.2 62.7334 39.5333 58.0667C46.7333 53.4 53.4 49.6667 54.0667 49.6667C54.7333 49.6667 63.4 54.2 73.1333 59.8C83 65.4 91.4 69.6667 91.8 69.4C92.2 69 92.7333 66.6 93.2667 63.9334L93.9333 59.2667L80.4667 51.4C73.1333 47.1334 67 43.4 67 43C67 42.6 73 39.1333 80.3333 35.1333L93.6667 27.9333V21.4C93.6667 17.9333 93.2667 15 92.8667 15C92.0667 15 66.0667 29.4 40.7333 43.9334L35 47.1334V33.9333V20.8667L29.8 17.9333C27 16.3333 24.3333 15 23.8 15C23.4 15 23 27 23 41.8Z" fill="#0F172A"/>
<path d="M38.3333 66.2C27 73.2667 25 75 25.4 77.6667C25.9333 82.2 26.3333 82.3333 31.9333 80.0667C34.7333 78.8667 40.2 76.7333 44.0667 75.1333C47.8 73.6667 51 72.8667 51 73.5333C51 74.0667 46.3333 76.6 40.7333 79C35 81.2667 29.8 83.6667 29.2667 84.2C28.7333 84.7333 29.4 86.7333 30.7333 88.4667C33.2667 91.5333 33.5333 91.5333 40.4667 89.8C44.4667 88.7333 48.4667 87.6667 49.4 87.4C50.2 87 51 87.4 51 88.2C51 88.8667 48.4667 90.3333 45.4 91.1333C42.2 92.0667 39.1333 93.1333 38.6 93.6667C38.0667 94.2 41.2667 97.1333 45.8 100.067C50.3333 103.133 54.3333 105.533 54.4667 105.267C55.2667 104.467 53.2667 57.6667 52.4667 57.6667C52.0667 57.6667 45.6667 61.5333 38.3333 66.2Z" fill="#0F766E"/>
<path d="M58.7333 81.2667C58.3333 94.3333 58.2 105.133 58.3333 105.4C58.8667 106.067 75 94.7333 75 93.6667C75 93.1333 72.0667 91.9333 68.3333 91C64.7333 90.0667 61.6667 88.8667 61.6667 88.0667C61.6667 87.4 62.7333 87.1333 64.0667 87.5333C65.2667 87.9333 69.2667 88.8667 72.8667 89.8C79 91.2667 79.4 91.2667 81.8 88.2C83.1333 86.4667 84.3333 84.7333 84.3333 84.3333C84.3333 83.9333 79.5333 81.8 73.5333 79.6667C63.8 76.0667 60.6 74.2 61.8 73.1333C62.0667 72.8667 67.6667 74.7333 74.2 77.2667C83.6667 80.8667 86.3333 81.5333 87.1333 80.0667C89.8 75.9333 87.9333 74.3333 65.5333 61.2667L59.4 57.6667L58.7333 81.2667Z" fill="#0F766E"/>
<path d="M123.28 92V26.3H131.38V54.47H141.1L155.68 26.3H164.5L148.21 57.89L165.4 92H156.13L140.83 61.58H131.38V92H123.28ZM195.965 92.9C192.065 92.9 188.645 92.12 185.705 90.56C182.825 89 180.575 86.81 178.955 83.99C177.395 81.11 176.615 77.78 176.615 74V60.5C176.615 56.66 177.395 53.33 178.955 50.51C180.575 47.69 182.825 45.5 185.705 43.94C188.645 42.38 192.065 41.6 195.965 41.6C199.865 41.6 203.255 42.38 206.135 43.94C209.075 45.5 211.325 47.69 212.885 50.51C214.505 53.33 215.315 56.66 215.315 60.5V69.23H184.535V74C184.535 77.9 185.525 80.9 187.505 83C189.485 85.04 192.305 86.06 195.965 86.06C199.085 86.06 201.605 85.52 203.525 84.44C205.445 83.3 206.615 81.62 207.035 79.4H215.135C214.595 83.54 212.555 86.84 209.015 89.3C205.535 91.7 201.185 92.9 195.965 92.9ZM207.395 63.83V60.5C207.395 56.6 206.405 53.6 204.425 51.5C202.505 49.4 199.685 48.35 195.965 48.35C192.305 48.35 189.485 49.4 187.505 51.5C185.525 53.6 184.535 56.6 184.535 60.5V63.11H208.025L207.395 63.83ZM249.93 92.9C246.03 92.9 242.61 92.12 239.67 90.56C236.79 89 234.54 86.81 232.92 83.99C231.36 81.11 230.58 77.78 230.58 74V60.5C230.58 56.66 231.36 53.33 232.92 50.51C234.54 47.69 236.79 45.5 239.67 43.94C242.61 42.38 246.03 41.6 249.93 41.6C253.83 41.6 257.22 42.38 260.1 43.94C263.04 45.5 265.29 47.69 266.85 50.51C268.47 53.33 269.28 56.66 269.28 60.5V69.23H238.5V74C238.5 77.9 239.49 80.9 241.47 83C243.45 85.04 246.27 86.06 249.93 86.06C253.05 86.06 255.57 85.52 257.49 84.44C259.41 83.3 260.58 81.62 261 79.4H269.1C268.56 83.54 266.52 86.84 262.98 89.3C259.5 91.7 255.15 92.9 249.93 92.9ZM261.36 63.83V60.5C261.36 56.6 260.37 53.6 258.39 51.5C256.47 49.4 253.65 48.35 249.93 48.35C246.27 48.35 243.45 49.4 241.47 51.5C239.49 53.6 238.5 56.6 238.5 60.5V63.11H261.99L261.36 63.83ZM310.645 92C307.765 92 305.245 91.43 303.085 90.29C300.925 89.15 299.245 87.53 298.045 85.43C296.845 83.33 296.245 80.87 296.245 78.05V33.68H279.595V26.3H304.345V78.05C304.345 80.09 304.915 81.71 306.055 82.91C307.195 84.05 308.725 84.62 310.645 84.62H326.395V92H310.645Z" fill="#0F172A"/>
</svg>
