<svg width="115" height="115" viewBox="0 0 115 115" fill="none" xmlns="http://www.w3.org/2000/svg">
<rect width="115" height="115" rx="20" fill="#F8FAFC"/>
<path d="M23 41.8C23 62.2 23.4 68.2 24.6 67.5334C25.5333 67 32.2 62.7334 39.5333 58.0667C46.7333 53.4 53.4 49.6667 54.0667 49.6667C54.7333 49.6667 63.4 54.2 73.1333 59.8C83 65.4 91.4 69.6667 91.8 69.4C92.2 69 92.7333 66.6 93.2667 63.9334L93.9333 59.2667L80.4667 51.4C73.1333 47.1334 67 43.4 67 43C67 42.6 73 39.1333 80.3333 35.1333L93.6667 27.9333V21.4C93.6667 17.9333 93.2667 15 92.8667 15C92.0667 15 66.0667 29.4 40.7333 43.9334L35 47.1334V33.9333V20.8667L29.8 17.9333C27 16.3333 24.3333 15 23.8 15C23.4 15 23 27 23 41.8Z" fill="#0F172A"/>
<path d="M38.3333 66.2C27 73.2667 25 75 25.4 77.6667C25.9333 82.2 26.3333 82.3333 31.9333 80.0667C34.7333 78.8667 40.2 76.7333 44.0667 75.1333C47.8 73.6667 51 72.8667 51 73.5333C51 74.0667 46.3333 76.6 40.7333 79C35 81.2667 29.8 83.6667 29.2667 84.2C28.7333 84.7333 29.4 86.7333 30.7333 88.4667C33.2667 91.5333 33.5333 91.5333 40.4667 89.8C44.4667 88.7333 48.4667 87.6667 49.4 87.4C50.2 87 51 87.4 51 88.2C51 88.8667 48.4667 90.3333 45.4 91.1333C42.2 92.0667 39.1333 93.1333 38.6 93.6667C38.0667 94.2 41.2667 97.1333 45.8 100.067C50.3333 103.133 54.3333 105.533 54.4667 105.267C55.2667 104.467 53.2667 57.6667 52.4667 57.6667C52.0667 57.6667 45.6667 61.5333 38.3333 66.2Z" fill="#0F766E"/>
<path d="M58.7333 81.2667C58.3333 94.3333 58.2 105.133 58.3333 105.4C58.8667 106.067 75 94.7333 75 93.6667C75 93.1333 72.0667 91.9333 68.3333 91C64.7333 90.0667 61.6667 88.8667 61.6667 88.0667C61.6667 87.4 62.7333 87.1333 64.0667 87.5333C65.2667 87.9333 69.2667 88.8667 72.8667 89.8C79 91.2667 79.4 91.2667 81.8 88.2C83.1333 86.4667 84.3333 84.7333 84.3333 84.3333C84.3333 83.9333 79.5333 81.8 73.5333 79.6667C63.8 76.0667 60.6 74.2 61.8 73.1333C62.0667 72.8667 67.6667 74.7333 74.2 77.2667C83.6667 80.8667 86.3333 81.5333 87.1333 80.0667C89.8 75.9333 87.9333 74.3333 65.5333 61.2667L59.4 57.6667L58.7333 81.2667Z" fill="#0F766E"/>
</svg>
